<svg xmlns="http://www.w3.org/2000/svg" width="1300" height="430" viewBox="0 0 1300 430" role="img"><defs><marker id="a" markerWidth="10" markerHeight="10" refX="8" refY="5" orient="auto"><path d="M1,1 L9,5 L1,9 Z" fill="#334155"/></marker><style>.bg{fill:#f8fafc}.b{fill:#fff;stroke:#cbd5e1;stroke-width:2;rx:16}.m{fill:#eef6ff;stroke:#84bbed;stroke-width:2;rx:14}.p{fill:#effaf3;stroke:#78c59b;stroke-width:2;rx:14}.t{fill:#0f172a;font:700 24px Arial}.s{fill:#334155;font:18px Arial}.l{stroke:#334155;stroke-width:3;fill:none;marker-end:url(#a)}</style></defs><rect class="bg" width="1300" height="430"/><text class="t" x="55" y="55">Genie-style interactive world: learn latent actions from video</text><rect class="b" x="70" y="120" width="190" height="90"/><text class="s" x="112" y="154">unlabeled</text><text class="s" x="116" y="180">videos</text><path class="l" d="M260 165 L340 165"/><rect class="m" x="340" y="110" width="210" height="110"/><text class="s" x="386" y="147">tokenizer</text><text class="s" x="372" y="176">frames -&gt; tokens</text><path class="l" d="M550 165 L630 165"/><rect class="m" x="630" y="110" width="220" height="110"/><text class="s" x="675" y="147">latent action</text><text class="s" x="680" y="176">model</text><path class="l" d="M850 165 L930 165"/><rect class="p" x="930" y="110" width="230" height="110"/><text class="s" x="972" y="147">dynamics</text><text class="s" x="962" y="176">next-token video</text><path class="l" d="M1045 220 L1045 290"/><rect class="b" x="930" y="290" width="230" height="70"/><text class="s" x="960" y="333">playable rollout</text></svg>
