<svg xmlns="http://www.w3.org/2000/svg" width="1300" height="430" viewBox="0 0 1300 430" role="img"><defs><marker id="a" markerWidth="10" markerHeight="10" refX="8" refY="5" orient="auto"><path d="M1,1 L9,5 L1,9 Z" fill="#334155"/></marker><style>.bg{fill:#f8fafc}.b{fill:#fff;stroke:#cbd5e1;stroke-width:2;rx:16}.m{fill:#f3efff;stroke:#aa91e8;stroke-width:2;rx:14}.p{fill:#effaf3;stroke:#78c59b;stroke-width:2;rx:14}.t{fill:#0f172a;font:700 24px Arial}.s{fill:#334155;font:18px Arial}.l{stroke:#334155;stroke-width:3;fill:none;marker-end:url(#a)}.d{stroke:#64748b;stroke-width:3;fill:none;stroke-dasharray:8 8}</style></defs><rect class="bg" width="1300" height="430"/><text class="t" x="55" y="55">JEPA / V-JEPA: predict representations instead of pixels</text><rect class="b" x="70" y="115" width="210" height="110"/><text class="s" x="115" y="150">visible video</text><text class="s" x="115" y="180">context blocks</text><path class="l" d="M280 170 L360 170"/><rect class="m" x="360" y="115" width="190" height="110"/><text class="s" x="410" y="152">context</text><text class="s" x="405" y="180">encoder</text><path class="l" d="M550 170 L630 170"/><rect class="p" x="630" y="115" width="190" height="110"/><text class="s" x="680" y="152">predictor</text><text class="s" x="660" y="180">future repr</text><rect class="b" x="630" y="285" width="190" height="80"/><text class="s" x="675" y="320">target</text><text class="s" x="660" y="345">encoder(future)</text><path class="d" d="M725 225 L725 285"/><path class="l" d="M820 170 L910 170"/><rect class="m" x="910" y="115" width="250" height="110"/><text class="s" x="940" y="152">representation loss</text><text class="s" x="943" y="180">ignore pixel-level noise</text></svg>
