<svg xmlns="http://www.w3.org/2000/svg" width="1300" height="430" viewBox="0 0 1300 430" role="img"><defs><marker id="a" markerWidth="10" markerHeight="10" refX="8" refY="5" orient="auto"><path d="M1,1 L9,5 L1,9 Z" fill="#334155"/></marker><style>.bg{fill:#f8fafc}.b{fill:#fff;stroke:#cbd5e1;stroke-width:2;rx:16}.m{fill:#fff7e8;stroke:#e3ad64;stroke-width:2;rx:14}.p{fill:#eef6ff;stroke:#84bbed;stroke-width:2;rx:14}.t{fill:#0f172a;font:700 24px Arial}.s{fill:#334155;font:18px Arial}.l{stroke:#334155;stroke-width:3;fill:none;marker-end:url(#a)}</style></defs><rect class="bg" width="1300" height="430"/><text class="t" x="55" y="55">MuZero: model only what search needs</text><rect class="b" x="70" y="125" width="180" height="80"/><text class="s" x="118" y="158">observation</text><text class="s" x="112" y="183">history</text><path class="l" d="M250 165 L330 165"/><rect class="p" x="330" y="110" width="190" height="110"/><text class="s" x="378" y="146">representation</text><text class="s" x="388" y="175">h(o) = s0</text><path class="l" d="M520 165 L600 165"/><rect class="m" x="600" y="110" width="190" height="110"/><text class="s" x="650" y="146">dynamics</text><text class="s" x="628" y="175">s,a -&gt; s', reward</text><path class="l" d="M790 165 L870 165"/><rect class="p" x="870" y="95" width="210" height="140"/><text class="s" x="927" y="132">prediction</text><text class="s" x="920" y="162">policy prior</text><text class="s" x="945" y="192">value</text><path class="l" d="M975 235 L975 300"/><rect class="b" x="860" y="300" width="230" height="70"/><text class="s" x="902" y="343">MCTS planning</text><text class="s" x="1105" y="150">No pixel reconstruction target</text></svg>
