<svg xmlns="http://www.w3.org/2000/svg" width="1300" height="430" viewBox="0 0 1300 430" role="img"><defs><marker id="a" markerWidth="10" markerHeight="10" refX="8" refY="5" orient="auto"><path d="M1,1 L9,5 L1,9 Z" fill="#334155"/></marker><style>.bg{fill:#f8fafc}.b{fill:#fff;stroke:#cbd5e1;stroke-width:2;rx:16}.m{fill:#eef6ff;stroke:#84bbed;stroke-width:2;rx:14}.p{fill:#f3efff;stroke:#aa91e8;stroke-width:2;rx:14}.t{fill:#0f172a;font:700 24px Arial}.s{fill:#334155;font:18px Arial}.l{stroke:#334155;stroke-width:3;fill:none;marker-end:url(#a)}</style></defs><rect class="bg" width="1300" height="430"/><text class="t" x="55" y="55">World Action Model: predict future world and future action together</text><rect class="b" x="70" y="125" width="200" height="90"/><text class="s" x="105" y="160">observation</text><text class="s" x="125" y="187">+ goal</text><path class="l" d="M270 170 L350 170"/><rect class="m" x="350" y="105" width="230" height="130"/><text class="s" x="400" y="142">shared video</text><text class="s" x="392" y="170">diffusion / AR</text><text class="s" x="420" y="198">backbone</text><path class="l" d="M580 150 L700 115"/><path class="l" d="M580 190 L700 250"/><rect class="p" x="700" y="75" width="230" height="90"/><text class="s" x="755" y="110">future video</text><text class="s" x="760" y="137">supervision</text><rect class="p" x="700" y="220" width="230" height="90"/><text class="s" x="752" y="255">future action</text><text class="s" x="780" y="282">policy</text><path class="l" d="M930 265 L1035 265"/><rect class="b" x="1035" y="220" width="200" height="90"/><text class="s" x="1085" y="255">closed-loop</text><text class="s" x="1095" y="282">control</text></svg>
